<svg width="103" height="32" viewBox="0 0 103 32" fill="none" xmlns="http://www.w3.org/2000/svg">
<path d="M5.89773 24.7216L5.91193 17.4631H6.79261L13.7812 9.18182H20.7273L11.3381 20.1477H9.90341L5.89773 24.7216ZM0.414773 31V1.90909H6.46591V31H0.414773ZM14.0511 31L7.63068 21.4972L11.6648 17.2216L21.1392 31H14.0511ZM32.7408 31.4261C30.4964 31.4261 28.5646 30.9716 26.9453 30.0625C25.3355 29.1439 24.0949 27.8466 23.2237 26.1705C22.3525 24.4848 21.9169 22.4915 21.9169 20.1903C21.9169 17.946 22.3525 15.9763 23.2237 14.2812C24.0949 12.5862 25.3213 11.2652 26.9027 10.3182C28.4936 9.37121 30.3591 8.89773 32.4993 8.89773C33.9387 8.89773 35.2786 9.12973 36.5192 9.59375C37.7692 10.0483 38.8582 10.7348 39.7862 11.6534C40.7237 12.572 41.4529 13.7273 41.9737 15.1193C42.4946 16.5019 42.755 18.1212 42.755 19.9773V21.6392H24.3317V17.8892H37.0589C37.0589 17.018 36.8696 16.2462 36.4908 15.5739C36.112 14.9015 35.5864 14.3759 34.9141 13.9972C34.2512 13.6089 33.4794 13.4148 32.5987 13.4148C31.6802 13.4148 30.8658 13.6278 30.1555 14.054C29.4548 14.4706 28.9055 15.0341 28.5078 15.7443C28.1101 16.4451 27.9065 17.2263 27.897 18.0881V21.6534C27.897 22.733 28.0959 23.6657 28.4936 24.4517C28.9008 25.2377 29.4737 25.8438 30.2124 26.2699C30.951 26.696 31.8269 26.9091 32.8402 26.9091C33.5125 26.9091 34.1281 26.8144 34.6868 26.625C35.2455 26.4356 35.7237 26.1515 36.1214 25.7727C36.5192 25.3939 36.8222 24.9299 37.0305 24.3807L42.6271 24.75C42.343 26.0947 41.7607 27.2689 40.88 28.2727C40.0088 29.267 38.8819 30.0436 37.4993 30.6023C36.1262 31.1515 34.54 31.4261 32.7408 31.4261ZM52.755 18.3864V31H46.7038V9.18182H52.4709V13.0312H52.7266C53.2095 11.7623 54.0192 10.7585 55.1555 10.0199C56.2919 9.27178 57.6697 8.89773 59.2891 8.89773C60.8042 8.89773 62.1252 9.22917 63.2521 9.89205C64.379 10.5549 65.255 11.5019 65.88 12.733C66.505 13.9545 66.8175 15.4129 66.8175 17.108V31H60.7663V18.1875C60.7758 16.8523 60.4349 15.8106 59.7436 15.0625C59.0523 14.3049 58.1006 13.9261 56.8885 13.9261C56.0741 13.9261 55.3544 14.1013 54.7294 14.4517C54.1139 14.8021 53.6309 15.3134 53.2805 15.9858C52.9396 16.6487 52.7644 17.4489 52.755 18.3864ZM71.5866 31V9.18182H77.6378V31H71.5866ZM74.6264 6.36932C73.7268 6.36932 72.955 6.07102 72.3111 5.47443C71.6766 4.86837 71.3594 4.14394 71.3594 3.30114C71.3594 2.4678 71.6766 1.75284 72.3111 1.15625C72.955 0.550188 73.7268 0.247158 74.6264 0.247158C75.526 0.247158 76.2931 0.550188 76.9276 1.15625C77.5715 1.75284 77.8935 2.4678 77.8935 3.30114C77.8935 4.14394 77.5715 4.86837 76.9276 5.47443C76.2931 6.07102 75.526 6.36932 74.6264 6.36932ZM92.343 31.4261C90.1082 31.4261 88.1858 30.9527 86.576 30.0057C84.9756 29.0492 83.7446 27.7235 82.8828 26.0284C82.0305 24.3333 81.6044 22.3826 81.6044 20.1761C81.6044 17.9413 82.0353 15.9811 82.897 14.2955C83.7682 12.6004 85.004 11.2794 86.6044 10.3324C88.2048 9.37595 90.1082 8.89773 92.3146 8.89773C94.218 8.89773 95.8847 9.24337 97.3146 9.93466C98.7446 10.6259 99.8762 11.5966 100.71 12.8466C101.543 14.0966 102.002 15.5644 102.087 17.25H96.3771C96.2161 16.161 95.79 15.285 95.0987 14.6222C94.4169 13.9498 93.522 13.6136 92.4141 13.6136C91.4766 13.6136 90.6574 13.8693 89.9567 14.3807C89.2654 14.8826 88.7256 15.6165 88.3374 16.5824C87.9491 17.5483 87.755 18.7178 87.755 20.0909C87.755 21.483 87.9444 22.6667 88.3232 23.642C88.7114 24.6174 89.2559 25.3608 89.9567 25.8722C90.6574 26.3835 91.4766 26.6392 92.4141 26.6392C93.1054 26.6392 93.7256 26.4972 94.2749 26.2131C94.8336 25.929 95.2929 25.517 95.6527 24.9773C96.022 24.428 96.2635 23.7699 96.3771 23.0028H102.087C101.993 24.6695 101.538 26.1373 100.724 27.4062C99.9188 28.6657 98.8061 29.6506 97.3857 30.3608C95.9652 31.071 94.2843 31.4261 92.343 31.4261Z" fill="#FCFBFA"/>
</svg>
