<svg width="103" height="32" viewBox="0 0 103 32" fill="none" xmlns="http://www.w3.org/2000/svg">
<path d="M5.89773 24.7216L4.89773 24.7196L4.89251 27.3872L6.65001 25.3804L5.89773 24.7216ZM5.91193 17.4631V16.4631H4.91389L4.91193 17.4611L5.91193 17.4631ZM6.79261 17.4631V18.4631H7.25721L7.55684 18.108L6.79261 17.4631ZM13.7812 9.18182V8.18182H13.3167L13.017 8.53687L13.7812 9.18182ZM20.7273 9.18182L21.4869 9.8322L22.9 8.18182H20.7273V9.18182ZM11.3381 20.1477V21.1477H11.7983L12.0977 20.7981L11.3381 20.1477ZM9.90341 20.1477V19.1477H9.44991L9.15112 19.4889L9.90341 20.1477ZM0.414773 31H-0.585227V32H0.414773V31ZM0.414773 1.90909V0.90909H-0.585227V1.90909H0.414773ZM6.46591 1.90909H7.46591V0.90909H6.46591V1.90909ZM6.46591 31V32H7.46591V31H6.46591ZM14.0511 31L13.2225 31.5598L13.5199 32H14.0511V31ZM7.63068 21.4972L6.90333 20.8109L6.35373 21.3934L6.80208 22.057L7.63068 21.4972ZM11.6648 17.2216L12.4888 16.655L11.7872 15.6347L10.9374 16.5353L11.6648 17.2216ZM21.1392 31V32H23.0404L21.9632 30.4334L21.1392 31ZM6.89773 24.7235L6.91193 17.465L4.91193 17.4611L4.89773 24.7196L6.89773 24.7235ZM5.91193 18.4631H6.79261V16.4631H5.91193V18.4631ZM7.55684 18.108L14.5455 9.82676L13.017 8.53687L6.02838 16.8181L7.55684 18.108ZM13.7812 10.1818H20.7273V8.18182H13.7812V10.1818ZM19.9677 8.53143L10.5785 19.4973L12.0977 20.7981L21.4869 9.8322L19.9677 8.53143ZM11.3381 19.1477H9.90341V21.1477H11.3381V19.1477ZM9.15112 19.4889L5.14544 24.0628L6.65001 25.3804L10.6557 20.8066L9.15112 19.4889ZM1.41477 31V1.90909H-0.585227V31H1.41477ZM0.414773 2.90909H6.46591V0.90909H0.414773V2.90909ZM5.46591 1.90909V31H7.46591V1.90909H5.46591ZM6.46591 30H0.414773V32H6.46591V30ZM14.8797 30.4402L8.45929 20.9373L6.80208 22.057L13.2225 31.5598L14.8797 30.4402ZM8.35803 22.1834L12.3921 17.9079L10.9374 16.5353L6.90333 20.8109L8.35803 22.1834ZM10.8408 17.7882L20.3152 31.5666L21.9632 30.4334L12.4888 16.655L10.8408 17.7882ZM21.1392 30H14.0511V32H21.1392V30ZM26.9453 30.0625L26.4497 30.9311L26.4558 30.9345L26.9453 30.0625ZM23.2237 26.1705L22.3354 26.6296L22.3364 26.6316L23.2237 26.1705ZM23.2237 14.2812L22.3343 13.8241L22.3343 13.8241L23.2237 14.2812ZM26.9027 10.3182L26.3912 9.45888L26.389 9.46023L26.9027 10.3182ZM36.5192 9.59375L36.1688 10.5304L36.1774 10.5335L36.5192 9.59375ZM39.7862 11.6534L39.0827 12.3641L39.0864 12.3677L39.7862 11.6534ZM41.9737 15.1193L41.0371 15.4697L41.0379 15.4718L41.9737 15.1193ZM42.755 21.6392V22.6392H43.755V21.6392H42.755ZM24.3317 21.6392H23.3317V22.6392H24.3317V21.6392ZM24.3317 17.8892V16.8892H23.3317V17.8892H24.3317ZM37.0589 17.8892V18.8892H38.0589V17.8892H37.0589ZM36.4908 15.5739L35.6195 16.0647L35.6195 16.0647L36.4908 15.5739ZM34.9141 13.9972L34.4087 14.86L34.4159 14.8643L34.4232 14.8684L34.9141 13.9972ZM30.1555 14.054L30.6666 14.9135L30.67 14.9115L30.1555 14.054ZM28.5078 15.7443L29.3775 16.2379L29.3803 16.2329L28.5078 15.7443ZM27.897 18.0881L26.897 18.0771V18.0881H27.897ZM28.4936 24.4517L27.6013 24.9032L27.6057 24.9117L28.4936 24.4517ZM34.6868 26.625L34.3658 25.6779L34.3658 25.6779L34.6868 26.625ZM36.1214 25.7727L35.4318 25.0486L35.4318 25.0486L36.1214 25.7727ZM37.0305 24.3807L37.0964 23.3829L36.358 23.3341L36.0955 24.026L37.0305 24.3807ZM42.6271 24.75L43.6055 24.9567L43.844 23.8281L42.693 23.7522L42.6271 24.75ZM40.88 28.2727L40.1283 27.6132L40.1278 27.6137L40.88 28.2727ZM37.4993 30.6023L37.8707 31.5308L37.874 31.5294L37.4993 30.6023ZM32.7408 30.4261C30.6323 30.4261 28.8764 29.9998 27.4348 29.1905L26.4558 30.9345C28.2529 31.9434 30.3606 32.4261 32.7408 32.4261V30.4261ZM27.4409 29.1939C26.0014 28.3726 24.8953 27.2182 24.111 25.7093L22.3364 26.6316C23.2945 28.4749 24.6695 29.9153 26.4497 30.9311L27.4409 29.1939ZM24.1121 25.7113C23.3282 24.1948 22.9169 22.3653 22.9169 20.1903H20.9169C20.9169 22.6176 21.3768 24.7749 22.3354 26.6296L24.1121 25.7113ZM22.9169 20.1903C22.9169 18.0769 23.3265 16.2689 24.1131 14.7384L22.3343 13.8241C21.3786 15.6837 20.9169 17.8152 20.9169 20.1903H22.9169ZM24.1131 14.7384C24.902 13.2034 26.0008 12.0238 27.4164 11.1761L26.389 9.46023C24.6417 10.5065 23.2878 11.9689 22.3343 13.8241L24.1131 14.7384ZM27.4142 11.1775C28.8276 10.3362 30.5107 9.89773 32.4993 9.89773V7.89773C30.2076 7.89773 28.1596 8.40626 26.3912 9.45889L27.4142 11.1775ZM32.4993 9.89773C33.8295 9.89773 35.0497 10.1118 36.1688 10.5304L36.8695 8.65713C35.5076 8.1477 34.0479 7.89773 32.4993 7.89773V9.89773ZM36.1774 10.5335C37.2943 10.9397 38.2593 11.5491 39.0828 12.3641L40.4897 10.9427C39.4571 9.92061 38.244 9.1569 36.8609 8.65396L36.1774 10.5335ZM39.0864 12.3677C39.9062 13.171 40.5608 14.1966 41.0371 15.4697L42.9103 14.7689C42.345 13.2579 41.5412 11.973 40.4861 10.9391L39.0864 12.3677ZM41.0379 15.4718C41.507 16.717 41.755 18.212 41.755 19.9773H43.755C43.755 18.0304 43.4821 16.2868 42.9095 14.7668L41.0379 15.4718ZM41.755 19.9773V21.6392H43.755V19.9773H41.755ZM42.755 20.6392H24.3317V22.6392H42.755V20.6392ZM25.3317 21.6392V17.8892H23.3317V21.6392H25.3317ZM24.3317 18.8892H37.0589V16.8892H24.3317V18.8892ZM38.0589 17.8892C38.0589 16.8686 37.8356 15.9237 37.362 15.083L35.6195 16.0647C35.9035 16.5687 36.0589 17.1674 36.0589 17.8892H38.0589ZM37.362 15.083C36.8936 14.2515 36.2364 13.5944 35.4049 13.1259L34.4232 14.8684C34.9364 15.1575 35.3304 15.5515 35.6195 16.0647L37.362 15.083ZM35.4195 13.1343C34.582 12.6438 33.6306 12.4148 32.5987 12.4148V14.4148C33.3282 14.4148 33.9204 14.5741 34.4087 14.86L35.4195 13.1343ZM32.5987 12.4148C31.5192 12.4148 30.5232 12.6672 29.641 13.1965L30.67 14.9115C31.2083 14.5885 31.8411 14.4148 32.5987 14.4148V12.4148ZM29.6445 13.1944C28.793 13.7007 28.119 14.392 27.6353 15.2557L29.3803 16.2329C29.6921 15.6762 30.1166 15.2406 30.6666 14.9135L29.6445 13.1944ZM27.6381 15.2507C27.151 16.1089 26.9083 17.0582 26.8971 18.0771L28.897 18.0991C28.9047 17.3945 29.0691 16.7812 29.3775 16.2379L27.6381 15.2507ZM26.897 18.0881V21.6534H28.897V18.0881H26.897ZM26.897 21.6534C26.897 22.855 27.1186 23.9492 27.6013 24.9032L29.3859 24.0002C29.0732 23.3822 28.897 22.6109 28.897 21.6534H26.897ZM27.6057 24.9117C28.0973 25.8606 28.8019 26.6107 29.7126 27.1361L30.7121 25.4037C30.1455 25.0768 29.7043 24.6148 29.3815 23.9917L27.6057 24.9117ZM29.7126 27.1361C30.6296 27.6651 31.6847 27.9091 32.8402 27.9091V25.9091C31.9692 25.9091 31.2724 25.727 30.7121 25.4037L29.7126 27.1361ZM32.8402 27.9091C33.6067 27.9091 34.3324 27.801 35.0078 27.5721L34.3658 25.6779C33.9238 25.8278 33.4184 25.9091 32.8402 25.9091V27.9091ZM35.0078 27.5721C35.6938 27.3395 36.3005 26.9831 36.8111 26.4969L35.4318 25.0486C35.1469 25.3199 34.7972 25.5317 34.3658 25.6779L35.0078 27.5721ZM36.8111 26.4969C37.3247 26.0077 37.7079 25.4146 37.9655 24.7353L36.0955 24.026C35.9365 24.4452 35.7137 24.7801 35.4318 25.0486L36.8111 26.4969ZM36.9647 25.3785L42.5613 25.7478L42.693 23.7522L37.0964 23.3829L36.9647 25.3785ZM41.6487 24.5433C41.399 25.7252 40.8924 26.7423 40.1283 27.6132L41.6317 28.9322C42.6289 27.7956 43.2871 26.4642 43.6055 24.9567L41.6487 24.5433ZM40.1278 27.6137C39.3723 28.476 38.3809 29.1675 37.1246 29.6751L37.874 31.5294C39.3829 30.9197 40.6452 30.058 41.6321 28.9317L40.1278 27.6137ZM37.1279 29.6738C35.8955 30.1668 34.4396 30.4261 32.7408 30.4261V32.4261C34.6404 32.4261 36.3569 32.1363 37.8707 31.5307L37.1279 29.6738ZM52.755 18.3864L51.755 18.3763V18.3864H52.755ZM52.755 31V32H53.755V31H52.755ZM46.7038 31H45.7038V32H46.7038V31ZM46.7038 9.18182V8.18182H45.7038V9.18182H46.7038ZM52.4709 9.18182H53.4709V8.18182H52.4709V9.18182ZM52.4709 13.0312H51.4709V14.0312H52.4709V13.0312ZM52.7266 13.0312V14.0312H53.4159L53.6612 13.387L52.7266 13.0312ZM55.1555 10.0199L55.7005 10.8583L55.7054 10.8551L55.1555 10.0199ZM63.2521 9.89205L63.7592 9.03011L63.2521 9.89205ZM65.88 12.733L64.9883 13.1856L64.9897 13.1884L65.88 12.733ZM66.8175 31V32H67.8175V31H66.8175ZM60.7663 31H59.7663V32H60.7663V31ZM60.7663 18.1875L59.7663 18.1804V18.1875H60.7663ZM59.7436 15.0625L59.0049 15.7366L59.0092 15.7412L59.7436 15.0625ZM54.7294 14.4517L54.2404 13.5794L54.2347 13.5826L54.7294 14.4517ZM53.2805 15.9858L52.3937 15.5236L52.3913 15.5284L53.2805 15.9858ZM51.755 18.3864V31H53.755V18.3864H51.755ZM52.755 30H46.7038V32H52.755V30ZM47.7038 31V9.18182H45.7038V31H47.7038ZM46.7038 10.1818H52.4709V8.18182H46.7038V10.1818ZM51.4709 9.18182V13.0312H53.4709V9.18182H51.4709ZM52.4709 14.0312H52.7266V12.0312H52.4709V14.0312ZM53.6612 13.387C54.0688 12.3158 54.7423 11.4812 55.7005 10.8583L54.6106 9.18144C53.2961 10.0358 52.3502 11.2088 51.792 12.6755L53.6612 13.387ZM55.7054 10.8551C56.6496 10.2335 57.8274 9.89773 59.2891 9.89773V7.89773C57.5121 7.89773 55.9342 8.31001 54.6057 9.18464L55.7054 10.8551ZM59.2891 9.89773C60.6546 9.89773 61.7949 10.195 62.7451 10.754L63.7592 9.03011C62.4556 8.26331 60.9538 7.89773 59.2891 7.89773V9.89773ZM62.7451 10.754C63.6979 11.3145 64.4447 12.1149 64.9883 13.1856L66.7716 12.2803C66.0652 10.8889 65.0601 9.7954 63.7592 9.03011L62.7451 10.754ZM64.9897 13.1884C65.5276 14.2397 65.8175 15.5346 65.8175 17.108H67.8175C67.8175 15.2911 67.4824 13.6694 66.7702 12.2775L64.9897 13.1884ZM65.8175 17.108V31H67.8175V17.108H65.8175ZM66.8175 30H60.7663V32H66.8175V30ZM61.7663 31V18.1875H59.7663V31H61.7663ZM61.7663 18.1946C61.777 16.6866 61.3899 15.3707 60.4781 14.3838L59.0092 15.7412C59.4798 16.2505 59.7746 17.0179 59.7664 18.1804L61.7663 18.1946ZM60.4823 14.3884C59.5669 13.3853 58.3259 12.9261 56.8885 12.9261V14.9261C57.8753 14.9261 58.5377 15.2245 59.0049 15.7366L60.4823 14.3884ZM56.8885 12.9261C55.9266 12.9261 55.0342 13.1344 54.2404 13.5794L55.2184 15.324C55.6746 15.0682 56.2216 14.9261 56.8885 14.9261V12.9261ZM54.2347 13.5826C53.4402 14.0349 52.8264 14.6934 52.3937 15.5237L54.1673 16.4479C54.4354 15.9335 54.7876 15.5693 55.2241 15.3208L54.2347 13.5826ZM52.3913 15.5284C51.9632 16.3608 51.7657 17.3222 51.755 18.3763L53.7549 18.3965C53.7632 17.5755 53.9161 16.9365 54.1698 16.4431L52.3913 15.5284ZM71.5866 31H70.5866V32H71.5866V31ZM71.5866 9.18182V8.18182H70.5866V9.18182H71.5866ZM77.6378 9.18182H78.6378V8.18182H77.6378V9.18182ZM77.6378 31V32H78.6378V31H77.6378ZM72.3111 5.47443L71.6203 6.19754L71.6259 6.20281L71.6315 6.20799L72.3111 5.47443ZM72.3111 1.15625L72.9961 1.88477L72.9964 1.88445L72.3111 1.15625ZM76.9276 1.15625L76.2368 1.87936L76.2423 1.88463L76.2479 1.88981L76.9276 1.15625ZM76.9276 5.47443L77.6126 6.20295L77.6129 6.20263L76.9276 5.47443ZM72.5866 31V9.18182H70.5866V31H72.5866ZM71.5866 10.1818H77.6378V8.18182H71.5866V10.1818ZM76.6378 9.18182V31H78.6378V9.18182H76.6378ZM77.6378 30H71.5866V32H77.6378V30ZM74.6264 5.36932C73.9719 5.36932 73.4448 5.16153 72.9907 4.74087L71.6315 6.20799C72.4653 6.98051 73.4817 7.36932 74.6264 7.36932V5.36932ZM73.0018 4.75132C72.5558 4.32523 72.3594 3.85842 72.3594 3.30114H70.3594C70.3594 4.42945 70.7975 5.41151 71.6203 6.19754L73.0018 4.75132ZM72.3594 3.30114C72.3594 2.75739 72.5524 2.30195 72.9961 1.88477L71.6261 0.42773C70.8008 1.20373 70.3594 2.17822 70.3594 3.30114H72.3594ZM72.9964 1.88445C73.4513 1.45631 73.9766 1.24716 74.6264 1.24716V-0.752842C73.477 -0.752842 72.4587 -0.355934 71.6257 0.428051L72.9964 1.88445ZM74.6264 1.24716C75.276 1.24716 75.7936 1.45596 76.2368 1.87936L77.6183 0.43314C76.7926 -0.35558 75.7761 -0.752842 74.6264 -0.752842V1.24716ZM76.2479 1.88981C76.6999 2.30853 76.8935 2.76257 76.8935 3.30114H78.8935C78.8935 2.17303 78.4431 1.19715 77.6072 0.422688L76.2479 1.88981ZM76.8935 3.30114C76.8935 3.85332 76.6965 4.31869 76.2422 4.74623L77.6129 6.20263C78.4465 5.41805 78.8935 4.43456 78.8935 3.30114H76.8935ZM76.2425 4.74591C75.8002 5.16185 75.2808 5.36932 74.6264 5.36932V7.36932C75.7713 7.36932 76.786 6.98019 77.6126 6.20295L76.2425 4.74591ZM86.576 30.0057L86.063 30.8641L86.069 30.8676L86.576 30.0057ZM82.8828 26.0284L81.9894 26.4776L81.9914 26.4816L82.8828 26.0284ZM82.897 14.2955L82.0076 13.8383L82.0066 13.8403L82.897 14.2955ZM86.6044 10.3324L87.1137 11.193L87.1174 11.1908L86.6044 10.3324ZM97.3146 9.93466L97.7499 9.03435L97.7499 9.03435L97.3146 9.93466ZM100.71 12.8466L99.8775 13.4013L100.71 12.8466ZM102.087 17.25V18.25H103.139L103.086 17.1995L102.087 17.25ZM96.3771 17.25L95.3879 17.3962L95.5141 18.25H96.3771V17.25ZM95.0987 14.6222L94.3965 15.3343L94.4066 15.3439L95.0987 14.6222ZM89.9567 14.3807L90.5442 15.1899L90.5461 15.1885L89.9567 14.3807ZM88.3232 23.642L87.3909 24.0041L87.3941 24.0119L88.3232 23.642ZM89.9567 25.8722L90.5461 25.0644L90.5461 25.0644L89.9567 25.8722ZM94.2749 26.2131L93.8216 25.3217L93.8154 25.3249L94.2749 26.2131ZM95.6527 24.9773L94.8228 24.4193L94.8206 24.4226L95.6527 24.9773ZM96.3771 23.0028V22.0028H95.5144L95.3879 22.8563L96.3771 23.0028ZM102.087 23.0028L103.086 23.0596L103.146 22.0028H102.087V23.0028ZM100.724 27.4062L99.8821 26.8661L99.8811 26.8677L100.724 27.4062ZM97.3857 30.3608L96.9384 29.4664L96.9384 29.4664L97.3857 30.3608ZM92.343 30.4261C90.2513 30.4261 88.5115 29.984 87.083 29.1437L86.069 30.8676C87.8602 31.9213 89.9651 32.4261 92.343 32.4261V30.4261ZM87.089 29.1473C85.6538 28.2896 84.5523 27.1058 83.7742 25.5752L81.9914 26.4816C82.9368 28.3412 84.2974 29.8089 86.063 30.8641L87.089 29.1473ZM83.7762 25.5792C83.0046 24.0446 82.6044 22.252 82.6044 20.1761H80.6044C80.6044 22.5132 81.0565 24.6221 81.9894 26.4776L83.7762 25.5792ZM82.6044 20.1761C82.6044 18.0711 83.0096 16.272 83.7874 14.7507L82.0066 13.8403C81.0609 15.6901 80.6044 17.8115 80.6044 20.1761H82.6044ZM83.7864 14.7526C84.5737 13.2207 85.6797 12.0415 87.1136 11.193L86.0952 9.47176C84.3284 10.5172 82.9627 11.98 82.0076 13.8383L83.7864 14.7526ZM87.1174 11.1908C88.5363 10.3428 90.2554 9.89773 92.3146 9.89773V7.89773C89.961 7.89773 87.8732 8.40912 86.0914 9.474L87.1174 11.1908ZM92.3146 9.89773C94.0968 9.89773 95.6095 10.221 96.8794 10.835L97.7499 9.03435C96.1599 8.2657 94.3392 7.89773 92.3146 7.89773V9.89773ZM96.8794 10.835C98.1581 11.4532 99.1489 12.3085 99.8775 13.4013L101.542 12.2919C100.603 10.8847 99.331 9.79872 97.7499 9.03435L96.8794 10.835ZM99.8775 13.4013C100.599 14.4834 101.011 15.7722 101.089 17.3005L103.086 17.1995C102.993 15.3566 102.487 13.7097 101.542 12.2919L99.8775 13.4013ZM102.087 16.25H96.3771V18.25H102.087V16.25ZM97.3664 17.1038C97.178 15.8296 96.6656 14.7392 95.7908 13.9004L94.4066 15.3439C94.9144 15.8309 95.2543 16.4924 95.3879 17.3962L97.3664 17.1038ZM95.8009 13.9101C94.9024 13.0242 93.7402 12.6136 92.4141 12.6136V14.6136C93.3038 14.6136 93.9314 14.8755 94.3966 15.3342L95.8009 13.9101ZM92.4141 12.6136C91.2827 12.6136 90.2532 12.9264 89.3672 13.5729L90.5461 15.1885C91.0617 14.8123 91.6704 14.6136 92.4141 14.6136V12.6136ZM89.3692 13.5715C88.4954 14.2059 87.8525 15.1073 87.4095 16.2094L89.2652 16.9553C89.5987 16.1257 90.0354 15.5593 90.5442 15.1899L89.3692 13.5715ZM87.4095 16.2094C86.961 17.3251 86.755 18.6286 86.755 20.0909H88.755C88.755 18.807 88.9372 17.7715 89.2652 16.9553L87.4095 16.2094ZM86.755 20.0909C86.755 21.5682 86.9552 22.882 87.391 24.0041L89.2553 23.28C88.9335 22.4513 88.755 21.3977 88.755 20.0909H86.755ZM87.3941 24.0119C87.8373 25.1253 88.485 26.0362 89.3672 26.6799L90.5461 25.0644C90.0269 24.6854 89.5856 24.1095 89.2523 23.2722L87.3941 24.0119ZM89.3672 26.6799C90.2532 27.3265 91.2827 27.6392 92.4141 27.6392V25.6392C91.6704 25.6392 91.0617 25.4406 90.5461 25.0644L89.3672 26.6799ZM92.4141 27.6392C93.2461 27.6392 94.027 27.4671 94.7343 27.1013L93.8154 25.3249C93.4242 25.5272 92.9646 25.6392 92.4141 25.6392V27.6392ZM94.7281 27.1045C95.4454 26.7397 96.0331 26.2094 96.4847 25.532L94.8206 24.4226C94.5526 24.8247 94.2218 25.1182 93.8216 25.3217L94.7281 27.1045ZM96.4825 25.5353C96.948 24.843 97.2346 24.0386 97.3663 23.1494L95.3879 22.8563C95.2924 23.5011 95.096 24.0131 94.8229 24.4193L96.4825 25.5353ZM96.3771 24.0028H102.087V22.0028H96.3771V24.0028ZM101.089 22.9461C101.003 24.4597 100.594 25.7572 99.8821 26.8661L101.565 27.9464C102.482 26.5174 102.982 24.8793 103.086 23.0596L101.089 22.9461ZM99.8811 26.8677C99.1796 27.9654 98.2079 28.8317 96.9384 29.4664L97.8329 31.2552C99.4043 30.4695 100.658 29.366 101.566 27.9448L99.8811 26.8677ZM96.9384 29.4664C95.6843 30.0934 94.1631 30.4261 92.343 30.4261V32.4261C94.4056 32.4261 96.2461 32.0486 97.8329 31.2552L96.9384 29.4664Z" fill="#FCFBFA"/>
</svg>
