<svg width="357" height="110" viewBox="0 0 357 110" fill="none" xmlns="http://www.w3.org/2000/svg">
<path d="M19.642 86.0256L19.6918 60.6207H22.7741L47.2344 31.6364H71.5455L38.6832 70.017H33.6619L19.642 86.0256ZM0.451705 108V6.18182H21.6307V108H0.451705ZM48.179 108L25.7074 74.7401L39.8267 59.7756L72.9872 108H48.179ZM113.593 109.491C105.738 109.491 98.9762 107.901 93.3086 104.719C87.6741 101.504 83.3323 96.9631 80.283 91.0966C77.2338 85.197 75.7092 78.2202 75.7092 70.1662C75.7092 62.3111 77.2338 55.4171 80.283 49.4844C83.3323 43.5516 87.6244 38.928 93.1594 35.6136C98.7276 32.2992 105.257 30.642 112.748 30.642C117.785 30.642 122.475 31.4541 126.817 33.0781C131.192 34.669 135.004 37.072 138.252 40.2869C141.533 43.5019 144.085 47.5455 145.908 52.4176C147.731 57.2566 148.642 62.9242 148.642 69.4205V75.2372H84.1609V62.1122H128.706C128.706 59.063 128.043 56.3617 126.718 54.0085C125.392 51.6553 123.552 49.8158 121.199 48.4901C118.879 47.1312 116.178 46.4517 113.096 46.4517C109.881 46.4517 107.03 47.1974 104.544 48.6889C102.092 50.1473 100.169 52.1193 98.7773 54.6051C97.3853 57.0578 96.6727 59.7921 96.6396 62.8082V75.2869C96.6396 79.0653 97.3356 82.33 98.7276 85.081C100.153 87.8319 102.158 89.9531 104.743 91.4446C107.328 92.9361 110.394 93.6818 113.941 93.6818C116.294 93.6818 118.448 93.3504 120.404 92.6875C122.359 92.0246 124.033 91.0303 125.425 89.7045C126.817 88.3788 127.878 86.7547 128.607 84.8324L148.195 86.125C147.201 90.8314 145.162 94.9413 142.08 98.4545C139.031 101.935 135.087 104.652 130.248 106.608C125.442 108.53 119.89 109.491 113.593 109.491ZM183.642 63.8523V108H162.463V31.6364H182.648V45.1094H183.543C185.233 40.6681 188.067 37.1548 192.044 34.5696C196.022 31.9512 200.844 30.642 206.512 30.642C211.815 30.642 216.438 31.8021 220.382 34.1222C224.327 36.4422 227.392 39.7566 229.58 44.0653C231.767 48.3409 232.861 53.4451 232.861 59.3778V108H211.682V63.1562C211.715 58.483 210.522 54.8371 208.103 52.2188C205.683 49.5672 202.352 48.2415 198.11 48.2415C195.259 48.2415 192.74 48.8546 190.553 50.081C188.399 51.3073 186.708 53.0971 185.482 55.4503C184.289 57.7704 183.676 60.571 183.642 63.8523ZM249.553 108V31.6364H270.732V108H249.553ZM260.192 21.7926C257.044 21.7926 254.343 20.7486 252.089 18.6605C249.868 16.5393 248.758 14.0038 248.758 11.054C248.758 8.13731 249.868 5.63494 252.089 3.54688C254.343 1.42566 257.044 0.365052 260.192 0.365052C263.341 0.365052 266.026 1.42566 268.246 3.54688C270.5 5.63494 271.627 8.13731 271.627 11.054C271.627 14.0038 270.5 16.5393 268.246 18.6605C266.026 20.7486 263.341 21.7926 260.192 21.7926ZM322.201 109.491C314.379 109.491 307.65 107.834 302.016 104.52C296.415 101.172 292.106 96.5322 289.09 90.5994C286.107 84.6667 284.615 77.839 284.615 70.1165C284.615 62.2945 286.123 55.4337 289.14 49.5341C292.189 43.6013 296.514 38.9777 302.115 35.6633C307.717 32.3158 314.379 30.642 322.101 30.642C328.763 30.642 334.596 31.8518 339.601 34.2713C344.606 36.6908 348.567 40.0881 351.483 44.4631C354.4 48.8381 356.007 53.9754 356.306 59.875H336.32C335.757 56.0634 334.265 52.9976 331.846 50.6776C329.459 48.3243 326.327 47.1477 322.449 47.1477C319.168 47.1477 316.301 48.0426 313.848 49.8324C311.429 51.589 309.54 54.1577 308.181 57.5384C306.822 60.919 306.142 65.0123 306.142 69.8182C306.142 74.6903 306.805 78.8333 308.131 82.2472C309.49 85.661 311.396 88.2628 313.848 90.0526C316.301 91.8423 319.168 92.7372 322.449 92.7372C324.869 92.7372 327.04 92.2401 328.962 91.2457C330.917 90.2514 332.525 88.8097 333.784 86.9205C335.077 84.9981 335.922 82.6946 336.32 80.0099H356.306C355.974 85.8433 354.383 90.9806 351.533 95.4219C348.716 99.83 344.821 103.277 339.85 105.763C334.878 108.249 328.995 109.491 322.201 109.491Z" fill="#F27B0C"/>
</svg>
